<svg width="20" height="19" viewBox="0 0 20 19" fill="none" xmlns="http://www.w3.org/2000/svg">
<path fill-rule="evenodd" clip-rule="evenodd" d="M12.6651 0.329344C13.0356 0.144102 13.4861 0.29427 13.6713 0.664754L15.8725 5.06708C17.2256 5.17102 18.0747 5.43643 18.6226 6.11413C19.5231 7.2281 19.1639 8.90451 18.4454 12.2573L18.0168 14.2573C17.5299 16.5299 17.2864 17.6662 16.4613 18.3332C15.6362 19.0002 14.4742 19.0002 12.15 19.0002H7.85102C5.52688 19.0002 4.36481 19.0002 3.53974 18.3332C2.71467 17.6662 2.47118 16.5299 1.9842 14.2573L1.55563 12.2573C0.83717 8.90451 0.477938 7.2281 1.37849 6.11413C1.92634 5.43644 2.77543 5.17103 4.1285 5.06708L6.32967 0.664754C6.51491 0.29427 6.96541 0.144102 7.3359 0.329344C7.70638 0.514586 7.85655 0.965091 7.67131 1.33557L5.83638 5.00543C6.3196 5.00016 6.84687 5.00016 7.42245 5.00016H12.5786C13.1541 5.00016 13.6814 5.00016 14.1646 5.00543L12.3297 1.33557C12.1444 0.965091 12.2946 0.514586 12.6651 0.329344ZM5.25049 10.0002C5.25049 9.58595 5.58627 9.25016 6.00049 9.25016H14.0005C14.4147 9.25016 14.7505 9.58595 14.7505 10.0002C14.7505 10.4144 14.4147 10.7502 14.0005 10.7502H6.00049C5.58627 10.7502 5.25049 10.4144 5.25049 10.0002ZM8.00049 12.2502C7.58627 12.2502 7.25049 12.586 7.25049 13.0002C7.25049 13.4144 7.58627 13.7502 8.00049 13.7502H12.0005C12.4147 13.7502 12.7505 13.4144 12.7505 13.0002C12.7505 12.586 12.4147 12.2502 12.0005 12.2502H8.00049Z" fill="#405189"/>
</svg>
