<svg width="24" height="24" viewBox="0 0 24 24" fill="none" xmlns="http://www.w3.org/2000/svg">
<circle cx="9" cy="6" r="4" fill="#405189"/>
<ellipse cx="9" cy="17" rx="7" ry="4" fill="#405189"/>
<path d="M20.9991 16.9997C20.9991 18.6566 18.9636 19.9997 16.4783 19.9997C17.2105 19.1994 17.714 18.1948 17.714 17.0011C17.714 15.8061 17.2093 14.8005 16.4758 13.9998C18.961 13.9998 20.9991 15.3429 20.9991 16.9997Z" fill="#405189"/>
<path d="M17.9991 6C17.9991 7.65685 16.656 9 14.9991 9C14.6379 9 14.2915 8.93614 13.9707 8.81908C14.4438 7.98699 14.714 7.02449 14.714 5.99888C14.714 4.97404 14.4442 4.0122 13.9718 3.18053C14.2922 3.06372 14.6382 3 14.9991 3C16.656 3 17.9991 4.34315 17.9991 6Z" fill="#405189"/>
</svg>
